<svg width="105" height="111" viewBox="0 0 105 111" fill="none" xmlns="http://www.w3.org/2000/svg">
<path d="M46.656 0.303996V18.16H31.536V106H15.12V18.16H0V0.303996H15.12H31.536H46.656ZM13.392 19.888V22.192H4.032V19.888H13.392ZM48.384 4.336H50.688V22.192H35.568V110.032H19.152V107.584H33.264V19.888H48.384V4.336ZM70.2788 87.568H100.663V105.856H53.7188V0.447994H70.2788V87.568ZM74.3108 84.112V4.47999H72.0068V84.112H74.3108ZM102.391 91.6V107.44H57.7508V109.888H104.695V91.6H102.391Z" fill="#990000"/>
<path d="M46.656 0.303996H47.656V-0.696004H46.656V0.303996ZM46.656 18.16V19.16H47.656V18.16H46.656ZM31.536 18.16V17.16H30.536V18.16H31.536ZM31.536 106V107H32.536V106H31.536ZM15.12 106H14.12V107H15.12V106ZM15.12 18.16H16.12V17.16H15.12V18.16ZM0 18.16H-1V19.16H0V18.16ZM0 0.303996V-0.696004H-1V0.303996H0ZM13.392 19.888H14.392V18.888H13.392V19.888ZM13.392 22.192V23.192H14.392V22.192H13.392ZM4.032 22.192H3.032V23.192H4.032V22.192ZM4.032 19.888V18.888H3.032V19.888H4.032ZM48.384 4.336V3.336H47.384V4.336H48.384ZM50.688 4.336H51.688V3.336H50.688V4.336ZM50.688 22.192V23.192H51.688V22.192H50.688ZM35.568 22.192V21.192H34.568V22.192H35.568ZM35.568 110.032V111.032H36.568V110.032H35.568ZM19.152 110.032H18.152V111.032H19.152V110.032ZM19.152 107.584V106.584H18.152V107.584H19.152ZM33.264 107.584V108.584H34.264V107.584H33.264ZM33.264 19.888V18.888H32.264V19.888H33.264ZM48.384 19.888V20.888H49.384V19.888H48.384ZM45.656 0.303996V18.16H47.656V0.303996H45.656ZM46.656 17.16H31.536V19.16H46.656V17.16ZM30.536 18.16V106H32.536V18.16H30.536ZM31.536 105H15.12V107H31.536V105ZM16.12 106V18.16H14.12V106H16.12ZM15.12 17.16H0V19.16H15.12V17.16ZM1 18.16V0.303996H-1V18.16H1ZM0 1.304H15.12V-0.696004H0V1.304ZM15.12 1.304H31.536V-0.696004H15.12V1.304ZM31.536 1.304H46.656V-0.696004H31.536V1.304ZM12.392 19.888V22.192H14.392V19.888H12.392ZM13.392 21.192H4.032V23.192H13.392V21.192ZM5.032 22.192V19.888H3.032V22.192H5.032ZM4.032 20.888H13.392V18.888H4.032V20.888ZM48.384 5.336H50.688V3.336H48.384V5.336ZM49.688 4.336V22.192H51.688V4.336H49.688ZM50.688 21.192H35.568V23.192H50.688V21.192ZM34.568 22.192V110.032H36.568V22.192H34.568ZM35.568 109.032H19.152V111.032H35.568V109.032ZM20.152 110.032V107.584H18.152V110.032H20.152ZM19.152 108.584H33.264V106.584H19.152V108.584ZM34.264 107.584V19.888H32.264V107.584H34.264ZM33.264 20.888H48.384V18.888H33.264V20.888ZM49.384 19.888V4.336H47.384V19.888H49.384ZM70.2788 87.568H69.2788V88.568H70.2788V87.568ZM100.663 87.568H101.663V86.568H100.663V87.568ZM100.663 105.856V106.856H101.663V105.856H100.663ZM53.7188 105.856H52.7188V106.856H53.7188V105.856ZM53.7188 0.447994V-0.552006H52.7188V0.447994H53.7188ZM70.2788 0.447994H71.2788V-0.552006H70.2788V0.447994ZM74.3108 84.112V85.112H75.3108V84.112H74.3108ZM74.3108 4.47999H75.3108V3.47999H74.3108V4.47999ZM72.0068 4.47999V3.47999H71.0068V4.47999H72.0068ZM72.0068 84.112H71.0068V85.112H72.0068V84.112ZM102.391 91.6V90.6H101.391V91.6H102.391ZM102.391 107.44V108.44H103.391V107.44H102.391ZM57.7508 107.44V106.44H56.7508V107.44H57.7508ZM57.7508 109.888H56.7508V110.888H57.7508V109.888ZM104.695 109.888V110.888H105.695V109.888H104.695ZM104.695 91.6H105.695V90.6H104.695V91.6ZM70.2788 88.568H100.663V86.568H70.2788V88.568ZM99.6628 87.568V105.856H101.663V87.568H99.6628ZM100.663 104.856H53.7188V106.856H100.663V104.856ZM54.7188 105.856V0.447994H52.7188V105.856H54.7188ZM53.7188 1.44799H70.2788V-0.552006H53.7188V1.44799ZM69.2788 0.447994V87.568H71.2788V0.447994H69.2788ZM75.3108 84.112V4.47999H73.3108V84.112H75.3108ZM74.3108 3.47999H72.0068V5.47999H74.3108V3.47999ZM71.0068 4.47999V84.112H73.0068V4.47999H71.0068ZM72.0068 85.112H74.3108V83.112H72.0068V85.112ZM101.391 91.6V107.44H103.391V91.6H101.391ZM102.391 106.44H57.7508V108.44H102.391V106.44ZM56.7508 107.44V109.888H58.7508V107.44H56.7508ZM57.7508 110.888H104.695V108.888H57.7508V110.888ZM105.695 109.888V91.6H103.695V109.888H105.695ZM104.695 90.6H102.391V92.6H104.695V90.6Z" fill="black"/>
</svg>
