<svg aria-hidden="true" style="position: absolute; width: 0; height: 0; overflow: hidden;" version="1.1" xmlns="http://www.w3.org/2000/svg" xmlns:xlink="http://www.w3.org/1999/xlink">
<defs>
<symbol id="icon-codepen" viewBox="0 0 48 48">
<title>codepen</title>
<path d="M23.545 7.486l-10.969-7.313c-0.374-0.23-0.774-0.232-1.152 0l-10.969 7.313c-0.281 0.187-0.455 0.522-0.455 0.857v7.312c0 0.335 0.174 0.67 0.455 0.857l10.969 7.314c0.374 0.23 0.774 0.233 1.152 0l10.969-7.314c0.281-0.187 0.455-0.522 0.455-0.857v-7.312c-0-0.335-0.174-0.67-0.455-0.857zM13.031 2.959l8.076 5.384-3.603 2.411-4.473-2.987v-4.808zM10.969 2.959v4.808l-4.473 2.987-3.603-2.411 8.076-5.384zM2.063 10.272l2.585 1.728-2.585 1.728v-3.455zM10.969 21.040l-8.076-5.384 3.603-2.411 4.473 2.987v4.808zM12 14.437l-3.643-2.438 3.643-2.438 3.643 2.438-3.643 2.438zM13.031 21.040v-4.808l4.473-2.987 3.603 2.411-8.076 5.384zM21.938 13.727l-2.585-1.728 2.585-1.728v3.455z"></path>
</symbol>
<symbol id="icon-github" viewBox="0 0 48 48">
<title>github</title>
<path d="M7.777 18.628c0 0.094-0.108 0.169-0.244 0.169-0.155 0.014-0.262-0.061-0.262-0.169 0-0.094 0.108-0.169 0.244-0.169 0.141-0.014 0.263 0.061 0.263 0.169zM6.319 18.417c-0.033 0.094 0.061 0.202 0.202 0.23 0.122 0.047 0.262 0 0.291-0.094s-0.061-0.202-0.202-0.244c-0.122-0.033-0.258 0.014-0.291 0.108zM8.391 18.337c-0.136 0.033-0.23 0.122-0.216 0.23 0.014 0.094 0.136 0.155 0.277 0.122 0.136-0.033 0.23-0.122 0.216-0.216-0.014-0.089-0.141-0.15-0.277-0.136zM11.475 0.375c-6.502 0-11.475 4.936-11.475 11.438 0 5.198 3.272 9.647 7.945 11.212 0.6 0.108 0.811-0.262 0.811-0.567 0-0.291-0.014-1.894-0.014-2.878 0 0-3.281 0.703-3.97-1.397 0 0-0.534-1.364-1.303-1.716 0 0-1.073-0.736 0.075-0.722 0 0 1.167 0.094 1.809 1.209 1.027 1.809 2.747 1.289 3.417 0.98 0.108-0.75 0.413-1.27 0.75-1.58-2.62-0.291-5.264-0.67-5.264-5.18 0-1.289 0.356-1.936 1.106-2.761-0.122-0.305-0.52-1.561 0.122-3.183 0.98-0.305 3.234 1.266 3.234 1.266 0.938-0.263 1.945-0.398 2.944-0.398s2.006 0.136 2.944 0.398c0 0 2.255-1.575 3.234-1.266 0.642 1.627 0.244 2.878 0.122 3.183 0.75 0.83 1.209 1.477 1.209 2.761 0 4.523-2.761 4.884-5.381 5.18 0.431 0.37 0.797 1.073 0.797 2.175 0 1.58-0.014 3.534-0.014 3.919 0 0.305 0.216 0.675 0.811 0.567 4.688-1.556 7.866-6.005 7.866-11.203 0-6.502-5.273-11.438-11.775-11.438zM4.556 16.542c-0.061 0.047-0.047 0.155 0.033 0.244 0.075 0.075 0.183 0.108 0.244 0.047 0.061-0.047 0.047-0.155-0.033-0.244-0.075-0.075-0.183-0.108-0.244-0.047zM4.050 16.163c-0.033 0.061 0.014 0.136 0.108 0.183 0.075 0.047 0.169 0.033 0.202-0.033 0.033-0.061-0.014-0.136-0.108-0.183-0.094-0.028-0.169-0.014-0.202 0.033zM5.569 17.831c-0.075 0.061-0.047 0.202 0.061 0.291 0.108 0.108 0.244 0.122 0.305 0.047 0.061-0.061 0.033-0.202-0.061-0.291-0.103-0.108-0.244-0.122-0.305-0.047zM5.034 17.142c-0.075 0.047-0.075 0.169 0 0.277s0.202 0.155 0.262 0.108c0.075-0.061 0.075-0.183 0-0.291-0.066-0.108-0.188-0.155-0.262-0.094z"></path>
</symbol>
<symbol id="icon-mastodon" viewBox="0 0 48 48">
<path d="M30.924 10.505c0-6.941-4.548-8.976-4.548-8.976-2.293-1.053-6.232-1.496-10.321-1.529h-0.101c-4.091 0.033-8.027 0.476-10.32 1.529 0 0-4.548 2.035-4.548 8.976 0 1.589-0.031 3.491 0.020 5.505 0.165 6.789 1.245 13.479 7.521 15.14 2.893 0.765 5.379 0.927 7.38 0.816 3.629-0.2 5.667-1.296 5.667-1.296l-0.12-2.633c0 0-2.593 0.817-5.505 0.719-2.887-0.099-5.932-0.311-6.399-3.855-0.041-0.29-0.064-0.626-0.064-0.967 0-0.009 0-0.018 0-0.028v0.001c0 0 2.833 0.693 6.423 0.857 2.195 0.1 4.253-0.129 6.344-0.377 4.009-0.479 7.5-2.949 7.939-5.207 0.689-3.553 0.633-8.676 0.633-8.676zM25.559 19.451h-3.329v-8.159c0-1.72-0.724-2.592-2.171-2.592-1.6 0-2.403 1.035-2.403 3.083v4.465h-3.311v-4.467c0-2.048-0.803-3.083-2.403-3.083-1.447 0-2.171 0.873-2.171 2.592v8.159h-3.329v-8.404c0-1.719 0.437-3.084 1.316-4.093 0.907-1.011 2.092-1.528 3.565-1.528 1.704 0 2.995 0.655 3.848 1.965l0.828 1.391 0.829-1.391c0.853-1.311 2.144-1.965 3.848-1.965 1.472 0 2.659 0.517 3.565 1.528 0.877 1.009 1.315 2.375 1.315 4.093z"></path>
</symbol>
<symbol id="icon-rss" viewBox="0 0 48 48">
<title>rss</title>
<path d="M6.004 19.498c0 1.658-1.344 3.002-3.002 3.002s-3.002-1.344-3.002-3.002 1.344-3.002 3.002-3.002 3.002 1.344 3.002 3.002zM14.238 21.713c-0.392-7.247-6.196-13.059-13.451-13.451-0.428-0.023-0.787 0.321-0.787 0.75v2.253c0 0.394 0.304 0.725 0.698 0.751 5.242 0.341 9.444 4.533 9.786 9.786 0.026 0.394 0.356 0.698 0.751 0.698h2.253c0.429 0 0.773-0.359 0.75-0.787zM21 21.726c-0.393-10.96-9.212-19.831-20.226-20.226-0.423-0.015-0.774 0.327-0.774 0.75v2.253c0 0.404 0.32 0.733 0.724 0.75 8.962 0.367 16.154 7.562 16.522 16.522 0.017 0.404 0.346 0.724 0.75 0.724h2.253c0.423-0 0.765-0.35 0.75-0.774z"></path>
</symbol>
<symbol id="icon-accessible-icon" viewBox="0 0 48 48">
<title>accessible-icon</title>
<path d="M19.87 11.991l-0.605 7.373c-0.155 1.908-2.995 1.645-2.841-0.23l0.469-5.742-1.927 0.108c0.473 0.97 0.741 2.058 0.741 3.211 0 1.931-0.755 3.689-1.983 4.992l-1.842-1.842c2.714-2.986 0.614-7.837-3.469-7.837-1.214 0-2.32 0.464-3.15 1.219l-1.842-1.842c1.031-0.97 2.348-1.645 3.816-1.884l3.53-4.017-1.997-1.162-2.419 2.156c-1.406 1.256-3.309-0.867-1.898-2.128l3.188-2.845c0.459-0.413 1.13-0.478 1.664-0.169 0 0 6.53 3.792 6.539 3.802 0.759 0.473 0.97 1.688 0.286 2.466l-2.738 3.117 4.973-0.277c0.867-0.052 1.575 0.675 1.505 1.533zM16.828 4.772c1.317 0 2.386-1.069 2.386-2.386s-1.069-2.386-2.386-2.386c-1.317 0-2.386 1.069-2.386 2.386s1.069 2.386 2.386 2.386zM8.419 21.398c-3.778 0-5.972-4.247-3.877-7.317l-1.861-1.861c-0.975 1.233-1.556 2.794-1.556 4.486 0 6.127 7.064 9.441 11.784 5.742l-1.861-1.861c-0.75 0.511-1.655 0.811-2.63 0.811z"></path>
</symbol>
</defs>
</svg>
