<svg aria-hidden="true" style="position: absolute; width: 0; height: 0; overflow: hidden;" version="1.1" xmlns="http://www.w3.org/2000/svg" xmlns:xlink="http://www.w3.org/1999/xlink">
<defs>
<symbol id="icon-codepen" viewBox="0 0 24 24">
<title>codepen</title>
<path d="M23.545 7.486l-10.969-7.313c-0.374-0.23-0.774-0.232-1.152 0l-10.969 7.313c-0.281 0.187-0.455 0.522-0.455 0.857v7.312c0 0.335 0.174 0.67 0.455 0.857l10.969 7.314c0.374 0.23 0.774 0.233 1.152 0l10.969-7.314c0.281-0.187 0.455-0.522 0.455-0.857v-7.312c-0-0.335-0.174-0.67-0.455-0.857zM13.031 2.959l8.076 5.384-3.603 2.411-4.473-2.987v-4.808zM10.969 2.959v4.808l-4.473 2.987-3.603-2.411 8.076-5.384zM2.063 10.272l2.585 1.728-2.585 1.728v-3.455zM10.969 21.040l-8.076-5.384 3.603-2.411 4.473 2.987v4.808zM12 14.437l-3.643-2.438 3.643-2.438 3.643 2.438-3.643 2.438zM13.031 21.040v-4.808l4.473-2.987 3.603 2.411-8.076 5.384zM21.938 13.727l-2.585-1.728 2.585-1.728v3.455z"></path>
</symbol>
<symbol id="icon-dribbble" viewBox="0 0 24 24">
<title>dribbble</title>
<path d="M12 0.375c-6.41 0-11.625 5.215-11.625 11.625s5.215 11.625 11.625 11.625 11.625-5.215 11.625-11.625-5.215-11.625-11.625-11.625zM19.686 5.736c1.383 1.69 2.22 3.842 2.242 6.185-0.327-0.069-3.61-0.735-6.914-0.32-0.27-0.658-0.524-1.237-0.873-1.951 3.671-1.499 5.335-3.632 5.545-3.915zM18.582 4.588c-0.179 0.254-1.673 2.263-5.204 3.587-1.627-2.99-3.431-5.445-3.705-5.813 3.149-0.759 6.467 0.060 8.909 2.226zM7.778 3.029c0.262 0.359 2.036 2.818 3.681 5.743-4.645 1.233-8.736 1.216-9.18 1.21 0.644-3.081 2.72-5.642 5.498-6.952zM2.070 12.015c0-0.102 0.002-0.203 0.005-0.303 0.434 0.009 5.246 0.071 10.205-1.413 0.284 0.556 0.556 1.121 0.805 1.685-3.591 1.011-6.853 3.915-8.462 6.671-1.586-1.76-2.553-4.089-2.553-6.639zM5.905 19.849c1.037-2.12 3.852-4.857 7.855-6.223 1.394 3.623 1.971 6.659 2.118 7.53-3.193 1.36-7.032 0.987-9.973-1.307zM17.548 20.246c-0.102-0.604-0.63-3.511-1.929-7.080 3.112-0.498 5.845 0.317 6.185 0.424-0.443 2.763-2.028 5.149-4.256 6.655z"></path>
</symbol>
<symbol id="icon-free-code-camp" viewBox="0 0 27 24">
<title>free-code-camp</title>
<path d="M3.248 6.773c-1.922 3.211-1.706 7.641 0.047 10.641 1.041 1.791 2.33 2.456 2.33 3.117 0 0.319-0.281 0.609-0.6 0.609-0.914 0-4.65-3.539-4.65-9.272 0-5.227 3.656-8.719 4.552-8.719 0.281 0 0.698 0.225 0.698 0.52 0 0.595-1.327 1.341-2.377 3.103zM12.427 16.795c0.211 0.084 0.577 0.244 0.577-0.056 0-0.127-0.103-0.136-0.202-0.169-0.398-0.159-0.656-0.361-0.895-0.712-0.384-0.567-0.473-1.134-0.473-1.809 0-1.505 2.072-1.777 2.072-3.281 0-0.577-0.361-0.745-0.361-0.905 0-0.103 0.033-0.103 0.136-0.103 0.375 0 0.895 0.623 1.055 0.928 0.103 0.216 0.112 0.281 0.112 0.52 0 0.328-0.033 0.666-0.033 0.998 0 1.266 1.495 0.928 1.495 0.319 0-0.281-0.169-0.544-0.169-0.816 0-0.033 0-0.056 0.033-0.056 0.159 0 0.441 0.361 0.52 0.473 0.272 0.417 0.398 0.975 0.398 1.472 0 1.519-1.383 2.297-1.383 2.625 0 0.047 0.136 0.361 0.567 0.089 1.392-0.708 2.489-2.231 2.489-4.209 0-1.575-0.408-2.705-1.505-3.872-0.183-0.192-0.769-0.792-1.055-0.792-0.384 0 0.337 0.872 0.337 1.463 0 0.337-0.225 0.577-0.577 0.577-0.544 0-0.68-1.191-0.745-1.561-0.272-1.584-0.6-2.728-2.175-3.473-0.488-0.234-1.711-0.553-1.711-0.103 0 0.112 0.127 0.192 0.216 0.239 0.431 0.263 0.919 1.003 0.919 1.791 0 2.161-2.705 4.134-2.705 6.384-0.009 1.889 1.317 3.403 3.061 4.041zM22.050 3.141c-0.281 0-0.675 0.305-0.675 0.591 0 0.408 0.567 0.919 0.825 1.191 3.825 3.989 3.684 10.045 0.825 13.641-0.328 0.417-1.655 1.655-1.655 2.039 0 0.239 0.384 0.534 0.619 0.534 1.191 0 4.631-3.787 4.631-8.705 0.005-5.592-3.567-9.291-4.57-9.291zM20.067 18.286h-12.239c-0.441 0-0.727 0.352-0.727 0.769 0 0.398 0.328 0.727 0.727 0.727h12.239c0.441 0 0.558-0.352 0.558-0.769 0-0.398-0.164-0.727-0.558-0.727z"></path>
</symbol>
<symbol id="icon-github" viewBox="0 0 23 24">
<title>github</title>
<path d="M7.777 18.628c0 0.094-0.108 0.169-0.244 0.169-0.155 0.014-0.262-0.061-0.262-0.169 0-0.094 0.108-0.169 0.244-0.169 0.141-0.014 0.263 0.061 0.263 0.169zM6.319 18.417c-0.033 0.094 0.061 0.202 0.202 0.23 0.122 0.047 0.262 0 0.291-0.094s-0.061-0.202-0.202-0.244c-0.122-0.033-0.258 0.014-0.291 0.108zM8.391 18.337c-0.136 0.033-0.23 0.122-0.216 0.23 0.014 0.094 0.136 0.155 0.277 0.122 0.136-0.033 0.23-0.122 0.216-0.216-0.014-0.089-0.141-0.15-0.277-0.136zM11.475 0.375c-6.502 0-11.475 4.936-11.475 11.438 0 5.198 3.272 9.647 7.945 11.212 0.6 0.108 0.811-0.262 0.811-0.567 0-0.291-0.014-1.894-0.014-2.878 0 0-3.281 0.703-3.97-1.397 0 0-0.534-1.364-1.303-1.716 0 0-1.073-0.736 0.075-0.722 0 0 1.167 0.094 1.809 1.209 1.027 1.809 2.747 1.289 3.417 0.98 0.108-0.75 0.413-1.27 0.75-1.58-2.62-0.291-5.264-0.67-5.264-5.18 0-1.289 0.356-1.936 1.106-2.761-0.122-0.305-0.52-1.561 0.122-3.183 0.98-0.305 3.234 1.266 3.234 1.266 0.938-0.263 1.945-0.398 2.944-0.398s2.006 0.136 2.944 0.398c0 0 2.255-1.575 3.234-1.266 0.642 1.627 0.244 2.878 0.122 3.183 0.75 0.83 1.209 1.477 1.209 2.761 0 4.523-2.761 4.884-5.381 5.18 0.431 0.37 0.797 1.073 0.797 2.175 0 1.58-0.014 3.534-0.014 3.919 0 0.305 0.216 0.675 0.811 0.567 4.688-1.556 7.866-6.005 7.866-11.203 0-6.502-5.273-11.438-11.775-11.438zM4.556 16.542c-0.061 0.047-0.047 0.155 0.033 0.244 0.075 0.075 0.183 0.108 0.244 0.047 0.061-0.047 0.047-0.155-0.033-0.244-0.075-0.075-0.183-0.108-0.244-0.047zM4.050 16.163c-0.033 0.061 0.014 0.136 0.108 0.183 0.075 0.047 0.169 0.033 0.202-0.033 0.033-0.061-0.014-0.136-0.108-0.183-0.094-0.028-0.169-0.014-0.202 0.033zM5.569 17.831c-0.075 0.061-0.047 0.202 0.061 0.291 0.108 0.108 0.244 0.122 0.305 0.047 0.061-0.061 0.033-0.202-0.061-0.291-0.103-0.108-0.244-0.122-0.305-0.047zM5.034 17.142c-0.075 0.047-0.075 0.169 0 0.277s0.202 0.155 0.262 0.108c0.075-0.061 0.075-0.183 0-0.291-0.066-0.108-0.188-0.155-0.262-0.094z"></path>
</symbol>
<symbol id="icon-gitlab" viewBox="0 0 24 24">
<title>gitlab</title>
<path d="M4.931 1.167c-0.145-0.417-0.736-0.417-0.886 0l-2.648 8.194h6.188c-0.005 0-2.653-8.194-2.653-8.194zM0.042 13.486c-0.122 0.375 0.014 0.792 0.333 1.031l11.62 8.625-10.603-13.781zM7.58 9.361l4.42 13.781 4.42-13.781zM23.958 13.486l-1.35-4.125-10.608 13.781 11.62-8.625c0.323-0.239 0.455-0.656 0.338-1.031zM19.955 1.167c-0.145-0.417-0.736-0.417-0.886 0l-2.653 8.194h6.188z"></path>
</symbol>
<symbol id="icon-lastfm" viewBox="0 0 24 24">
<title>lastfm</title>
<path d="M10.584 17.208l-0.881-2.391s-1.43 1.594-3.572 1.594c-1.898 0-3.244-1.65-3.244-4.289 0-3.38 1.706-4.589 3.38-4.589 3.117 0 3.506 2.498 4.73 6.323 0.881 2.667 2.531 4.809 7.284 4.809 3.408 0 5.719-1.045 5.719-3.792 0-3.417-2.939-3.778-5.391-4.317-1.209-0.277-1.566-0.769-1.566-1.594 0-0.933 0.741-1.486 1.95-1.486 1.322 0 2.034 0.497 2.142 1.678l2.747-0.328c-0.22-2.475-1.927-3.492-4.73-3.492-2.475 0-4.894 0.933-4.894 3.933 0 1.87 0.909 3.052 3.188 3.6 2.105 0.497 3.741 0.647 3.741 2.142 0 1.017-0.989 1.43-2.859 1.43-2.775 0-3.933-1.458-4.589-3.464-1.5-4.537-2.044-7.641-7.561-7.641-4.036 0-6.178 2.555-6.178 6.9 0 4.177 2.142 6.431 5.995 6.431 3.103 0 4.589-1.458 4.589-1.458z"></path>
</symbol>
<symbol id="icon-spotify" viewBox="0 0 23 24">
<title>spotify</title>
<path d="M11.625 0.375c-6.417 0-11.625 5.208-11.625 11.625s5.208 11.625 11.625 11.625 11.625-5.208 11.625-11.625-5.208-11.625-11.625-11.625zM16.345 17.48c-0.197 0-0.319-0.061-0.502-0.169-2.925-1.763-6.328-1.837-9.689-1.148-0.183 0.047-0.422 0.122-0.558 0.122-0.455 0-0.741-0.361-0.741-0.741 0-0.483 0.286-0.713 0.638-0.788 3.839-0.848 7.763-0.773 11.109 1.228 0.286 0.183 0.455 0.347 0.455 0.773s-0.333 0.722-0.712 0.722zM17.606 14.405c-0.244 0-0.408-0.108-0.577-0.197-2.93-1.734-7.298-2.433-11.184-1.378-0.225 0.061-0.347 0.122-0.558 0.122-0.502 0-0.909-0.408-0.909-0.909s0.244-0.834 0.727-0.97c1.303-0.366 2.634-0.638 4.584-0.638 3.042 0 5.981 0.755 8.297 2.133 0.38 0.225 0.53 0.516 0.53 0.923-0.005 0.506-0.398 0.914-0.909 0.914zM19.059 10.833c-0.244 0-0.394-0.061-0.605-0.183-3.337-1.992-9.305-2.47-13.167-1.392-0.169 0.047-0.38 0.122-0.605 0.122-0.619 0-1.092-0.483-1.092-1.106 0-0.637 0.394-0.998 0.816-1.12 1.65-0.483 3.497-0.712 5.508-0.712 3.422 0 7.008 0.712 9.628 2.241 0.366 0.211 0.605 0.502 0.605 1.059 0 0.637-0.516 1.092-1.087 1.092z"></path>
</symbol>
<symbol id="icon-twitter" viewBox="0 0 24 24">
<title>twitter</title>
<path d="M21.533 7.112c0.015 0.213 0.015 0.426 0.015 0.64 0 6.502-4.949 13.995-13.995 13.995-2.787 0-5.376-0.807-7.553-2.208 0.396 0.046 0.777 0.061 1.188 0.061 2.299 0 4.416-0.777 6.107-2.101-2.162-0.046-3.975-1.462-4.599-3.411 0.305 0.046 0.609 0.076 0.929 0.076 0.442 0 0.883-0.061 1.294-0.167-2.254-0.457-3.944-2.437-3.944-4.827v-0.061c0.655 0.365 1.416 0.594 2.223 0.624-1.325-0.883-2.193-2.391-2.193-4.096 0-0.914 0.244-1.751 0.67-2.482 2.421 2.985 6.061 4.934 10.142 5.147-0.076-0.365-0.122-0.746-0.122-1.127 0-2.711 2.193-4.919 4.919-4.919 1.416 0 2.695 0.594 3.594 1.553 1.112-0.213 2.178-0.624 3.122-1.188-0.366 1.142-1.142 2.102-2.162 2.711 0.99-0.107 1.949-0.381 2.832-0.761-0.67 0.975-1.508 1.843-2.467 2.543z"></path>
</symbol>
<symbol id="icon-rss" viewBox="0 0 21 24">
<title>rss</title>
<path d="M6.004 19.498c0 1.658-1.344 3.002-3.002 3.002s-3.002-1.344-3.002-3.002 1.344-3.002 3.002-3.002 3.002 1.344 3.002 3.002zM14.238 21.713c-0.392-7.247-6.196-13.059-13.451-13.451-0.428-0.023-0.787 0.321-0.787 0.75v2.253c0 0.394 0.304 0.725 0.698 0.751 5.242 0.341 9.444 4.533 9.786 9.786 0.026 0.394 0.356 0.698 0.751 0.698h2.253c0.429 0 0.773-0.359 0.75-0.787zM21 21.726c-0.393-10.96-9.212-19.831-20.226-20.226-0.423-0.015-0.774 0.327-0.774 0.75v2.253c0 0.404 0.32 0.733 0.724 0.75 8.962 0.367 16.154 7.562 16.522 16.522 0.017 0.404 0.346 0.724 0.75 0.724h2.253c0.423-0 0.765-0.35 0.75-0.774z"></path>
</symbol>
<symbol id="icon-accessible-icon" viewBox="0 0 21 24">
<title>accessible-icon</title>
<path d="M19.87 11.991l-0.605 7.373c-0.155 1.908-2.995 1.645-2.841-0.23l0.469-5.742-1.927 0.108c0.473 0.97 0.741 2.058 0.741 3.211 0 1.931-0.755 3.689-1.983 4.992l-1.842-1.842c2.714-2.986 0.614-7.837-3.469-7.837-1.214 0-2.32 0.464-3.15 1.219l-1.842-1.842c1.031-0.97 2.348-1.645 3.816-1.884l3.53-4.017-1.997-1.162-2.419 2.156c-1.406 1.256-3.309-0.867-1.898-2.128l3.188-2.845c0.459-0.413 1.13-0.478 1.664-0.169 0 0 6.53 3.792 6.539 3.802 0.759 0.473 0.97 1.688 0.286 2.466l-2.738 3.117 4.973-0.277c0.867-0.052 1.575 0.675 1.505 1.533zM16.828 4.772c1.317 0 2.386-1.069 2.386-2.386s-1.069-2.386-2.386-2.386c-1.317 0-2.386 1.069-2.386 2.386s1.069 2.386 2.386 2.386zM8.419 21.398c-3.778 0-5.972-4.247-3.877-7.317l-1.861-1.861c-0.975 1.233-1.556 2.794-1.556 4.486 0 6.127 7.064 9.441 11.784 5.742l-1.861-1.861c-0.75 0.511-1.655 0.811-2.63 0.811z"></path>
</symbol>
</defs>
</svg>
